<svg xmlns="http://www.w3.org/2000/svg" viewBox="0 0 400 240" fill="none">
  <rect width="400" height="240" rx="16" fill="#F4FAFF"/>
  <!-- Decorative background -->
  <circle cx="90" cy="65" r="40" fill="#EAF6FF"/>
  <circle cx="320" cy="55" r="30" fill="#FEF3C7"/>
  <!-- Clothes Hanger & Fresh clean clothes -->
  <path d="M160 50 L200 35 L240 50 Z" stroke="#64748B" stroke-width="2.5" fill="none"/>
  <path d="M200 35 C200 25 208 25 208 30 C208 34 200 34 200 35" stroke="#64748B" stroke-width="2.5" fill="none"/>
  <!-- T-shirt / warm sweater -->
  <path d="M160 50 L140 75 L160 85 L165 70 L165 110 L235 110 L235 70 L240 85 L260 75 L240 50 C220 58 180 58 160 50 Z" fill="#3B82F6" stroke="#1D4ED8" stroke-width="2"/>
  <!-- Warm stripes -->
  <line x1="166" y1="80" x2="234" y2="80" stroke="#FFFFFF" stroke-width="3"/>
  <line x1="166" y1="95" x2="234" y2="95" stroke="#FBBF24" stroke-width="3"/>
  <!-- Cheerful child wearing warm comfortable clothing -->
  <circle cx="200" cy="150" r="28" fill="#FCD34D"/>
  <path d="M174 145 C174 120 226 120 226 145 C215 132 185 132 174 145 Z" fill="#172B3A"/>
  <!-- Eyes & Smile -->
  <circle cx="191" cy="150" r="2.5" fill="#172B3A"/>
  <circle cx="209" cy="150" r="2.5" fill="#172B3A"/>
  <path d="M195 158 Q200 164 205 158" stroke="#172B3A" stroke-width="2" fill="none" stroke-linecap="round"/>
  <!-- Warm Winter Coat / Clothes Body -->
  <path d="M165 180 C165 170 235 170 235 180 L242 225 L158 225 Z" fill="#EA580C"/>
  <path d="M185 180 L200 195 L215 180" stroke="#FFFFFF" stroke-width="2" fill="none"/>
  <!-- Cute buttons -->
  <circle cx="200" cy="195" r="3" fill="#FFFFFF"/>
  <circle cx="200" cy="207" r="3" fill="#FFFFFF"/>
  <!-- Gift box with clean clothes -->
  <rect x="280" y="160" width="60" height="50" rx="6" fill="#F43F5E"/>
  <rect x="275" y="153" width="70" height="12" rx="3" fill="#FB7185"/>
  <line x1="310" y1="153" x2="310" y2="210" stroke="#FDE047" stroke-width="4"/>
  <path d="M305 153 C295 145 305 135 310 150 C315 135 325 145 315 153" stroke="#FDE047" stroke-width="3" fill="none"/>
  <!-- Badge -->
  <rect x="20" y="16" width="155" height="26" rx="13" fill="#FFFFFF" stroke="#C5E3FB"/>
  <text x="32" y="33" font-family="system-ui, sans-serif" font-size="12" font-weight="700" fill="#3B82F6">👕 Warm &amp; Clean Clothes</text>
</svg>
